<?xml version="1.0" encoding="UTF-8"?>
<svg width="579px" height="578px" viewBox="0 0 579 578" version="1.1" xmlns="http://www.w3.org/2000/svg" xmlns:xlink="http://www.w3.org/1999/xlink">
    <!-- Generator: Sketch 54.1 (76490) - https://sketchapp.com -->
    <title>Group 63</title>
    <desc>Created with Sketch.</desc>
    <g id="Page-1" stroke="none" stroke-width="1" fill="none" fill-rule="evenodd">
        <g id="Sello-con-pantone" transform="translate(-208.000000, -144.000000)" fill="#21354C">
            <g id="Group-63" transform="translate(208.000000, 144.000000)">
                <path d="M518.001,443.0703 C508.139,457.6683 496.813,471.3943 484.338,483.8703 C471.862,496.3453 458.135,507.6723 443.538,517.5333 C428.804,527.4873 413.055,536.0363 396.726,542.9423 C362.755,557.3103 326.661,564.5953 289.448,564.5953 C252.234,564.5953 216.141,557.3103 182.169,542.9423 C165.841,536.0363 150.091,527.4873 135.357,517.5333 C120.76,507.6723 107.034,496.3453 94.558,483.8703 C82.083,471.3943 70.757,457.6683 60.895,443.0703 C50.941,428.3373 42.392,412.5873 35.486,396.2583 C21.118,362.2883 13.832,326.1943 13.832,288.9803 C13.832,251.7663 21.118,215.6733 35.486,181.7023 C42.392,165.3743 50.941,149.6243 60.895,134.8903 C70.757,120.2933 82.083,106.5663 94.558,94.0913 C107.034,81.6153 120.76,70.2893 135.357,60.4273 C150.091,50.4733 165.841,41.9243 182.169,35.0183 C216.141,20.6503 252.234,13.3643 289.448,13.3643 C326.661,13.3643 362.755,20.6503 396.726,35.0183 C413.055,41.9243 428.804,50.4733 443.538,60.4273 C458.135,70.2893 471.862,81.6153 484.338,94.0913 C496.813,106.5663 508.139,120.2933 518.001,134.8903 C527.954,149.6243 536.503,165.3743 543.409,181.7023 C557.778,215.6733 565.064,251.7663 565.064,288.9803 C565.064,326.1943 557.778,362.2883 543.409,396.2583 C536.503,412.5873 527.954,428.3373 518.001,443.0703 M289.448,0.2203 C129.97,0.2203 0.688,129.5023 0.688,288.9803 C0.688,448.4583 129.97,577.7413 289.448,577.7413 C448.926,577.7413 578.208,448.4583 578.208,288.9803 C578.208,129.5023 448.926,0.2203 289.448,0.2203" id="Fill-3"></path>
                <path d="M98.98,399.6846 C97.813,395.9156 96.958,392.5866 99.824,390.9306 C102.437,389.4186 104.926,390.9046 106.778,394.1086 C108.581,397.2266 108.71,400.0766 105.352,402.2436 L108.543,407.7646 C114.992,404.0376 115.116,397.4416 111.681,391.4986 C108.245,385.5556 102.353,382.2696 96.284,385.7786 C89.918,389.4576 91.673,396.0916 93.116,400.8256 C94.313,404.7446 95.647,408.4146 92.697,410.1206 C90.168,411.5816 87.231,409.9066 85.574,407.0396 C83.723,403.8366 83.574,399.5916 87.86,396.8896 L84.693,391.4106 C77.317,395.6736 77.411,403.7176 80.919,409.7876 C84.282,415.6036 90.301,418.8166 96.202,415.4056 C103.115,411.4096 100.305,403.9226 98.98,399.6846" id="Fill-5"></path>
                <polygon id="Fill-7" points="124.9756 422.6182 135.7196 435.2112 140.2386 431.3552 125.3856 413.9472 99.4586 436.0682 114.9116 454.1802 119.4306 450.3252 108.0856 437.0282 114.4186 431.6242 124.3106 443.2172 128.8296 439.3622 118.9376 427.7692"></polygon>
                <polygon id="Fill-9" points="171.1812 457.7529 147.7902 472.6059 156.2252 446.2129 149.8652 441.3049 129.0442 468.2869 133.6312 471.8269 148.2952 452.8229 140.5702 477.1809 145.0792 480.6609 166.6822 467.0119 152.0182 486.0149 156.7212 489.6439 177.5422 462.6609"></polygon>
                <path d="M203.3457,487.8936 C202.1557,490.4006 199.7627,491.5816 196.5087,490.0376 L189.6477,486.7806 L193.8027,478.0296 L200.8827,481.3896 C203.9607,482.8516 204.5357,485.3866 203.3457,487.8936 M203.6047,476.1086 L190.6757,469.9716 L176.0637,500.7556 L181.7367,503.4476 L187.1227,492.1016 L193.8067,495.2746 C200.8437,498.6146 206.7477,495.5976 209.2527,490.3206 C211.6537,485.2626 210.3337,479.3016 203.6047,476.1086" id="Fill-11"></path>
                <polygon id="Fill-13" points="216.9795 517.9258 239.9845 524.0458 241.5115 518.3068 224.6225 513.8128 226.7625 505.7688 241.4875 509.6868 243.0145 503.9468 228.2905 500.0298 230.3305 492.3608 246.3255 496.6158 247.8525 490.8768 225.7415 484.9928"></polygon>
                <path d="M274.4121,508.9268 L266.8881,508.3658 L267.5381,499.6278 L275.5491,500.2258 C279.0441,500.4858 280.0501,502.7078 279.9021,504.6988 C279.7241,507.0768 277.9071,509.1878 274.4121,508.9268 M286.2241,505.0238 C286.5921,500.0718 283.4171,494.8568 275.6991,494.2808 L261.7181,493.2388 L259.1851,527.2208 L265.4481,527.6878 L266.4571,514.1438 L272.1851,514.5708 L279.6711,528.7478 L286.9051,529.2868 L278.7731,513.9388 C283.3451,512.8638 285.9271,509.0038 286.2241,505.0238" id="Fill-15"></path>
                <path d="M333.0293,511.1787 L335.0643,496.9817 L342.8283,509.0407 L333.0293,511.1787 Z M330.1143,490.7367 L324.4413,526.8547 L331.0053,525.4227 L332.1553,517.4487 L346.2343,514.3757 L350.6013,521.1477 L357.3553,519.6737 L337.1543,489.2007 L330.1143,490.7367 Z" id="Fill-17"></path>
                <polygon id="Fill-19" points="378.5762 505.3516 367.5042 479.4816 361.6852 481.9726 375.0962 513.3026 395.7732 504.4516 393.4362 498.9916"></polygon>
                <polygon id="Fill-21" points="413.5684 461.2061 410.4284 456.1641 386.2124 471.2481 389.3524 476.2891 398.7334 470.4461 413.6104 494.3321 418.9424 491.0121 404.0634 467.1261"></polygon>
                <polygon id="Fill-23" points="419.9707 448.2148 441.9717 474.2398 446.7687 470.1858 424.7667 444.1598"></polygon>
                <path d="M470.207,426.9521 L454.325,413.1631 L450.239,417.8681 L466.342,431.8491 C470.239,435.2321 470.194,438.9981 467.321,442.3061 C464.257,445.8361 460.145,446.2641 456.102,442.7531 L440.439,429.1551 L436.322,433.8971 L452.204,447.6871 C459.3,453.8481 466.421,452.5521 471.752,446.4121 C477.114,440.2361 477.266,433.0811 470.207,426.9521" id="Fill-25"></path>
                <path d="M496.2266,391.9229 C489.3046,387.9439 484.2336,394.1269 481.2306,397.3989 C478.5536,400.2959 476.1026,402.7049 473.2316,401.0559 C470.6156,399.5509 470.6526,396.6529 472.4966,393.4439 C474.2916,390.3209 476.6936,388.7819 480.2506,390.6029 L483.4296,385.0729 C476.9716,381.3599 471.2036,384.5589 467.7816,390.5109 C464.3606,396.4619 464.4706,403.2069 470.5486,406.7009 C476.9216,410.3639 481.7836,405.5219 485.1566,401.9019 C487.9476,398.9009 490.4556,395.9059 493.4106,397.6049 C495.9426,399.0599 495.9636,402.4419 494.3146,405.3119 C492.4706,408.5199 488.8716,410.7759 484.3846,408.4209 L481.2306,413.9079 C488.6176,418.1529 495.5306,414.0409 499.0236,407.9629 C502.3726,402.1379 502.1356,395.3199 496.2266,391.9229" id="Fill-27"></path>
                <polygon id="Fill-29" points="98.9209 322.3076 48.8809 332.7446 51.3259 344.4676 101.3659 334.0316"></polygon>
                <polygon id="Fill-31" points="95.936 295.6147 65.196 295.1797 96.213 276.0467 96.383 263.9987 45.272 263.2767 45.104 275.1777 74.967 275.5997 44.833 294.3807 44.657 306.7937 95.767 307.5157"></polygon>
                <polygon id="Fill-33" points="63.834 229.4063 101.994 240.4463 105.322 228.9423 67.162 217.9023 71.545 202.7503 60.603 199.5843 48.568 241.1813 59.511 244.3473"></polygon>
                <polygon id="Fill-35" points="132.1958 174.1235 122.2848 168.3605 109.9158 189.6345 102.4668 185.3035 113.2578 166.7445 103.2828 160.9455 92.4928 179.5045 85.4858 175.4305 97.2308 155.2295 87.3828 149.5035 69.5808 180.1205 113.7708 205.8135"></polygon>
                <path d="M127.1929,136.0972 L119.7259,128.3842 L127.8589,120.5112 C130.6389,117.8182 133.3179,118.2752 135.3999,120.4262 C137.6859,122.7872 137.6869,125.9372 134.7489,128.7822 L127.1929,136.0972 Z M147.3599,156.9272 L135.0669,144.2292 L140.7859,138.6932 L160.5819,144.1262 L170.3929,134.6272 L147.0399,128.7752 C149.7699,122.8802 148.3729,116.6082 143.6999,111.7812 C138.0619,105.9572 128.8009,103.7412 120.3539,111.9192 L103.1969,128.5302 L138.7549,165.2572 L147.3599,156.9272 Z" id="Fill-37"></path>
                <path d="M191.459,96.4961 L181.324,102.0111 L178.433,84.6281 L191.459,96.4961 Z M185.195,125.0141 L183.306,113.9031 L200.368,104.6181 L208.672,112.2371 L220.283,105.9191 L178.4,70.5121 L166.854,76.7951 L173.841,131.1921 L185.195,125.0141 Z" id="Fill-39"></path>
                <polygon id="Fill-41" points="240.0781 100.7847 234.7491 70.1357 251.0851 98.8707 261.0861 97.1317 266.7651 64.5687 272.0941 95.2177 283.3891 93.2537 274.6321 42.8917 261.0351 45.2567 253.3671 81.7227 233.8391 49.9847 220.1691 52.3617 228.9271 102.7237"></polygon>
                <polygon id="Fill-43" points="335.043 87.7764 310.628 84.6944 311.706 76.1454 333.008 78.8344 334.452 67.3864 313.151 64.6984 314.166 56.6564 337.351 59.5824 338.777 48.2804 303.639 43.8454 297.237 94.5604 333.607 99.1514"></polygon>
                <path d="M370.2324,69.6528 L380.7184,73.9148 C384.3034,75.3728 384.9674,78.0068 383.8394,80.7808 C382.6024,83.8258 379.7204,85.0978 375.9314,83.5578 L366.1904,79.5978 L370.2324,69.6528 Z M361.9274,90.0838 L369.3014,93.0808 L372.3204,113.3848 L384.9714,118.5278 L380.9004,94.7998 C387.3954,94.9178 392.5704,91.1098 395.0994,84.8848 C398.1524,77.3758 396.4414,68.0088 385.5494,63.5818 L363.4274,54.5888 L344.1764,101.9448 L355.2724,106.4558 L361.9274,90.0838 Z" id="Fill-45"></path>
                <polygon id="Fill-47" points="403.1211 131.9058 431.9041 89.6618 422.0071 82.9178 393.2241 125.1628"></polygon>
                <path d="M429.6914,157.2622 C438.2084,166.2942 451.1864,169.4132 461.4934,159.6942 L453.1764,150.8752 C447.9224,155.6282 442.3354,154.1722 438.2774,149.8692 C431.8654,143.0692 434.9884,135.2052 440.7254,129.7942 C446.4634,124.3842 454.5504,121.6772 461.0634,128.5832 C465.4714,133.2592 465.7244,138.7422 462.1654,142.0982 L470.5314,150.9712 C478.8554,141.9172 477.8094,130.0562 469.2424,120.9712 C457.6204,108.6452 442.2364,111.8102 432.3004,121.1782 C422.6304,130.2962 418.2184,145.0962 429.6914,157.2622" id="Fill-49"></path>
                <path d="M496.5488,183.6245 L484.2948,196.2875 L479.0868,185.9915 L496.5488,183.6245 Z M455.9808,189.1685 L467.1418,187.6145 L475.9088,204.9485 L468.0438,213.0185 L474.0098,224.8125 L510.6578,184.0165 L504.7258,172.2865 L450.1468,177.6345 L455.9808,189.1685 Z" id="Fill-51"></path>
                <polygon id="Fill-53" points="502.6289 261.5742 528.7959 237.5722 526.6869 225.3382 476.3139 234.0272 478.3369 245.7572 508.6319 240.5312 481.6629 265.0422 483.7119 276.9162 534.0839 268.2262 532.0609 256.4972"></polygon>
                <path d="M521.4189,318.7349 C520.3109,327.2799 513.5349,331.2619 504.8449,330.1349 C496.1539,329.0089 490.5459,323.4219 491.6529,314.8759 C492.7619,306.3299 499.6089,302.3579 508.3009,303.4849 C516.9899,304.6109 522.5269,310.1889 521.4189,318.7349 M509.8579,291.4629 C494.7239,289.4999 481.9689,297.5669 479.9219,313.3539 C477.8749,329.1419 488.1489,340.1939 503.2859,342.1569 C518.4219,344.1199 531.1039,336.0439 533.1509,320.2559 C535.1979,304.4679 524.9939,293.4249 509.8579,291.4629" id="Fill-55"></path>
                <path d="M350.3301,433.1162 C331.0551,441.2692 310.5701,445.4032 289.4481,445.4032 C268.3251,445.4032 247.8411,441.2692 228.5651,433.1162 C209.9401,425.2382 193.2101,413.9582 178.8401,399.5882 C174.1611,394.9092 169.8161,389.9762 165.8031,384.8132 L375.0191,273.8012 L444.3911,310.5612 C442.5321,324.0732 438.9281,337.2292 433.5831,349.8632 C425.7061,368.4882 414.4251,385.2182 400.0561,399.5882 C385.6851,413.9582 368.9561,425.2382 350.3301,433.1162 M135.3991,316.3442 L215.6831,273.8012 L281.3291,308.6332 L158.1221,374.0092 C153.1731,366.3782 148.8881,358.3182 145.3121,349.8632 C140.7331,339.0372 137.4221,327.8302 135.3991,316.3442 M145.3121,228.0972 C153.1901,209.4722 164.4701,192.7422 178.8401,178.3722 C193.2101,164.0032 209.9401,152.7222 228.5651,144.8452 C247.8411,136.6912 268.3251,132.5572 289.4481,132.5572 C310.5701,132.5572 331.0551,136.6912 350.3301,144.8452 C368.9561,152.7222 385.6851,164.0032 400.0561,178.3722 C414.4251,192.7422 425.7061,209.4722 433.5831,228.0972 C441.7361,247.3742 445.8701,267.8572 445.8701,288.9802 C445.8701,291.4552 445.8091,293.9202 445.6951,296.3762 L375.0161,258.9222 L295.3511,301.1932 L215.6871,258.9222 L133.6011,302.4202 C133.2251,297.9722 133.0251,293.4922 133.0251,288.9802 C133.0251,267.8572 137.1591,247.3742 145.3121,228.0972 M459.0161,288.9802 C459.0161,195.3312 383.0981,119.4132 289.4481,119.4132 C195.7981,119.4132 119.8801,195.3312 119.8801,288.9802 C119.8801,326.4212 132.0241,361.0192 152.5741,389.0732 L153.7171,391.2262 L154.0411,391.0532 C184.9931,432.0482 234.1231,458.5482 289.4481,458.5482 C383.0981,458.5482 459.0161,382.6302 459.0161,288.9802" id="Fill-57"></path>
                <path d="M290.1685,229.2373 L297.0215,239.2963 C303.8195,234.6653 307.3325,226.4323 305.9715,218.3233 C305.0375,212.7563 301.9915,207.8853 297.3945,204.6093 L290.3305,214.5203 C292.2805,215.9103 293.5725,217.9753 293.9675,220.3373 C294.5455,223.7783 293.0545,227.2713 290.1685,229.2373" id="Fill-59"></path>
                <path d="M281.1235,225.251 L288.6285,215.669 C285.8795,213.516 284.6235,209.932 285.4285,206.537 C285.9795,204.207 287.4065,202.231 289.4445,200.974 L283.0545,190.616 C278.2485,193.58 274.8865,198.238 273.5845,203.73 C271.6885,211.731 274.6485,220.179 281.1235,225.251" id="Fill-61"></path>
            </g>
        </g>
    </g>
</svg>